<svg xmlns="http://www.w3.org/2000/svg" xmlns:xlink="http://www.w3.org/1999/xlink" viewBox="0 0 614.61 142.98"><defs><style>.cls-1{font-size:128.46px;font-family:Montserrat-Medium, Montserrat;font-weight:500;letter-spacing:-0.05em;}.cls-1,.cls-5{fill:#29235c;}.cls-2,.cls-3{fill:#009fe3;font-family:Montserrat-ExtraLight, Montserrat;font-weight:200;}.cls-2{letter-spacing:-0.05em;}.cls-4{fill:url(#Gradiente_sem_nome_28);}</style><linearGradient id="Gradiente_sem_nome_28" y1="59.72" x2="85.31" y2="59.72" gradientUnits="userSpaceOnUse"><stop offset="0" stop-color="#29235c"/><stop offset="0.01" stop-color="#29235c"/><stop offset="0.43" stop-color="#29235c"/><stop offset="0.88" stop-color="#009fe3"/><stop offset="1" stop-color="#009fe3"/></linearGradient></defs><title>Logo bcs bank oficial_1</title><g id="Camada_2" data-name="Camada 2"><g id="Camada_1-2" data-name="Camada 1"><text class="cls-1" transform="translate(92.23 109.19)">bcs<tspan class="cls-2" x="206.05" y="0">b</tspan><tspan class="cls-3" x="285.95" y="0">ank</tspan></text><path class="cls-4" d="M67,90.31c2.52,2.26,5,4.58,7.3,6.92-1.8,3.23-3.83,6.52-6.08,9.83l-10-6.83C61.28,97,64.22,93.7,67,90.31ZM55,80.21q-6.1,5-12.32,9.36l9.76,6.68c3.48-3.12,6.89-6.37,10.17-9.82Q58.93,83.25,55,80.21Zm-11.76-8.5q-7.29,4.22-15,7.94l10,6.81c4.49-2.83,8.89-5.85,13.16-9Q47.35,74.44,43.26,71.71ZM26.64,61.89Q19.76,65.61,12.7,69L23.77,76.6q7.61-3.76,14.74-8C34.57,66.17,30.6,63.91,26.64,61.89ZM8.42,54.4,0,60.31l8.92,6.11c3.69-1.68,8.18-4,13.1-6.77A105,105,0,0,0,8.42,54.4ZM38.2,50A123.57,123.57,0,0,0,24,43.43L12.92,51.24a138.27,138.27,0,0,1,13.43,5.93C30.18,55,34.18,52.52,38.2,50Zm12.7-8.25c-4-2.85-8.19-5.67-12.44-8.46l-9.72,6.83c4.45,2.18,9.06,4.61,13.65,7.22C45.27,45.5,48.12,43.62,50.9,41.75Zm12.42-8.7a137.77,137.77,0,0,0-11-9.47l-8.46,5.93C47.68,32.77,51.43,35.89,55,39,57.94,36.94,60.73,35,63.32,33.05Zm12.21-9.77a100.86,100.86,0,0,0-7.29-10.89l-9.82,6.89a132.88,132.88,0,0,1,9.41,10.39C70.87,27.32,73.49,25.16,75.53,23.28Zm.31,17.19c1.8-1.73,3.57-3.48,5.3-5.27a72.78,72.78,0,0,0-3.55-8.09c-2.35,2-4.73,4-7.13,5.88Q73.27,36.66,75.84,40.47ZM58.56,42c2.7,2.35,5.32,4.66,7.81,7,2.21-1.86,4.38-3.75,6.5-5.71q-3-3.61-6.44-7.12C63.83,38.14,61.2,40.07,58.56,42Zm-11.73,8C50.27,52,53.67,54.15,57,56.39c2.21-1.63,4.37-3.31,6.5-5-2.74-2.29-5.64-4.54-8.65-6.77Q50.86,47.35,46.83,49.93ZM30.88,59.54q5.67,3.06,11.42,6.79,5.58-3.43,10.85-7.17c-3.41-2.34-6.91-4.56-10.44-6.62C38.82,55,34.88,57.29,30.88,59.54Zm33,7.61c-2-1.6-4-3.19-6.13-4.73q-5.2,3.67-10.7,7,3.76,2.58,7.57,5.44Q59.32,71.21,63.85,67.15Zm8.76,7.77C70.86,73.21,69,71.51,67,69.81q-4.41,4.09-8.86,7.83,3.59,2.82,7.2,5.89C67.85,80.78,70.27,77.93,72.61,74.92Zm-3,12.26q3.38,3,6.78,6.22a101.9,101.9,0,0,0,4.22-9.63C79.23,82,77.71,80.23,76,78.43,74,81.43,71.82,84.33,69.57,87.18Zm9-12.59C79.88,76,81.1,77.51,82.19,79c.59-1.92,1.1-3.84,1.52-5.74-.7-1.12-1.45-2.25-2.24-3.35C80.53,71.47,79.57,73.05,78.58,74.59Zm5.75-4.53A67.31,67.31,0,0,0,85.21,63c-.78,1.58-1.6,3.12-2.45,4.65C83.3,68.41,83.82,69.23,84.33,70.06Zm-.57-11.79c-.68-1.09-1.37-2.17-2.1-3.25-1.54,1.7-3.1,3.35-4.66,5q1.71,2,3.26,4.09C81.47,62.19,82.64,60.26,83.76,58.27Zm-5,8.11Q77,64.21,75,62.07c-1.52,1.55-3.06,3.07-4.6,4.55,1.76,1.53,3.43,3.06,5,4.63Q77.12,68.86,78.78,66.38ZM61.54,59.63q3,2.16,5.72,4.39,2.51-2.35,4.93-4.82c-1.47-1.45-3-2.88-4.61-4.31C65.61,56.51,63.59,58.09,61.54,59.63Zm17.75-8.06c-1-1.42-2.06-2.82-3.13-4.22-1.94,1.83-3.93,3.6-5.94,5.33,1.42,1.41,2.8,2.85,4.13,4.3C76,55.22,77.66,53.42,79.29,51.57Zm2.1-2.43c.93-1.11,1.85-2.22,2.76-3.35-.35-1.74-.76-3.46-1.25-5.18-1.36,1.45-2.74,2.87-4.16,4.25Q80.09,47,81.39,49.14Zm3.81,6.55.11-.21c-.06-1.4-.17-2.79-.32-4.18-.46.53-.93,1.06-1.39,1.57Z"/><path class="cls-5" d="M614.61,37.07a5.94,5.94,0,1,1-5.91-5.78A5.81,5.81,0,0,1,614.61,37.07Zm-10.39,0a4.47,4.47,0,0,0,4.51,4.61,4.42,4.42,0,0,0,4.4-4.58,4.46,4.46,0,1,0-8.91,0Zm3.56,3h-1.34V34.32a12.32,12.32,0,0,1,2.22-.17,3.58,3.58,0,0,1,2,.42,1.61,1.61,0,0,1,.56,1.27,1.47,1.47,0,0,1-1.2,1.33v.08a1.69,1.69,0,0,1,1.06,1.4,4.62,4.62,0,0,0,.42,1.45h-1.44a4.92,4.92,0,0,1-.46-1.41c-.1-.63-.46-.92-1.2-.92h-.63Zm0-3.28h.64c.74,0,1.34-.24,1.34-.84s-.39-.88-1.24-.88a3,3,0,0,0-.74.07Z"/></g></g></svg>